<svg xmlns="http://www.w3.org/2000/svg" width="300" height="300" viewBox="0 0 300 300"><g transform="translate(47.236 9.307)" fill="#11cd6e"><path d="M5.531 218.469l-.667-15.333h199v16zM195.858 170.2c-6.207-3.347-11.62-3.765-17.474-6.02-2.76-1.076-30.895-11.716-62.52-23.646-31.625-11.93-60.2-23.036-63.5-24.682-16.466-8.21-42.26-29.93-44.06-37.103-.805-3.206.936-5.614 4.06-5.614 1.24 0 2.72-.563 3.287-1.25.567-.688 1.587-7.437 2.267-14.998 1.387-15.43 1.945-16.568 7.26-14.814 5.137 1.695 6.97 4.271 15.013 21.1 4.073 8.522 8.113 16.081 8.978 16.8 2.996 2.486 42.794 17.078 43.2 15.84l1.46-61.428c9.59.536 20.036 6.743 22.864 14.516 1.1 3.153 4.49 10.934 7.53 19.734 12 34.722 15.79 45.05 16.964 46.238 15.214 8.536 31.156 10.102 46.716 20.059 6.07 4.1 17.779 16.522 19.532 20.718 1.922 4.6 1.848 11.924-.142 13.913-1.652 1.652-7.1 1.956-11.435.637z"/><ellipse cx="105.056" cy="146.005" rx="6.324" ry="6.135" fill-rule="evenodd"/><ellipse cx="90.711" cy="140.342" rx="6.324" ry="6.135" fill-rule="evenodd"/></g></svg>