<svg xmlns="http://www.w3.org/2000/svg" width="384" height="448" viewBox="0 0 384 448" fill="#C33"><path d="M64 112q0-6.5-4.75-11.25T48 96t-11.25 4.75T32 112t4.75 11.25T48 128t11.25-4.75T64 112zm288 144q0-8.75-5.375-20.25T333.25 224q3.75-4.25 6.25-11.875t2.5-13.875q0-17.25-13.25-29.75 4.5-8 4.5-17.25t-4.375-18.375T317 119.75q1.25-7.5 1.25-14 0-21.25-12.25-31.5T272 64h-32q-32.75 0-85.5 18.25-1.25.5-7.25 2.625T138.375 88t-8.75 2.875-9.5 2.75-8.25 1.625T104 96h-8v160h8q4 0 8.875 2.25t10 6.75 9.625 8.875 10 11 8.625 10.625T159 305.75t5.75 7.5q13.75 17 19.25 22.75 10.25 10.75 14.875 27.375t7.625 31.375T216 416q24 0 32-11.75t8-36.25q0-14.75-12-40.125T232 288h88q12.5 0 22.25-9.625T352 256zm32 .25Q384 282 365 301t-45 19h-44q12 24.75 12 48 0 29.5-8.75 46.5-8.75 17.25-25.5 25.375T216 448q-12.75 0-22.5-9.25-8.5-8.25-13.5-20.5t-6.375-22.625-4.375-21.125-7.75-16q-12-12.5-26.75-31.75Q109.5 294 100.5 288H32q-13.25 0-22.625-9.375T0 256V96q0-13.25 9.375-22.625T32 64h72q5.5 0 34.5-10 32-11 55.75-16.5t50-5.5h28q35 0 56.625 19.75t21.375 54V107q15 19.25 15 44.5 0 5.5-.75 10.75 9.5 16.75 9.5 36 0 9-2.25 17.25Q384 234 384 256.25z"/></svg>