<svg xmlns="http://www.w3.org/2000/svg" width="384" height="448" viewBox="0 0 384 448" fill="#ABABAB"><path d="M220 300v40q0 3.5-2.25 5.75T212 348h-40q-3.5 0-5.75-2.25T164 340v-40q0-3.5 2.25-5.75T172 292h40q3.5 0 5.75 2.25T220 300zm64-124q0 12.5-3.75 22.5t-11.375 17.25-13 11-14.875 9q-8 4.5-11.625 7t-6.5 6T220 256v8q0 3.5-2.25 5.75T212 272h-40q-3.5 0-5.75-2.25T164 264v-17q0-8.75 2.625-16.125t6-11.875 9.75-8.875 10.25-6.375 11.125-5.25q13.25-6.25 18.75-10.75t5.5-12.25q0-10.5-10.875-17.875t-23.875-7.375q-14 0-23.75 6.75-7.25 5-20 20.75-2.25 3-6.25 3-2.75 0-4.75-1.5l-27-20.5q-2.5-1.75-3-5t1.25-5.75q30.5-48 87.25-48 32.25 0 59.625 22.375T284 176zM192 64q-32.5 0-62.125 12.75t-51 34.125-34.125 51T32 224t12.75 62.125 34.125 51 51 34.125T192 384t62.125-12.75 51-34.125 34.125-51T352 224t-12.75-62.125-34.125-51-51-34.125T192 64zm192 160q0 52.25-25.75 96.375t-69.875 69.875T192 416t-96.375-25.75-69.875-69.875T0 224t25.75-96.375T95.625 57.75 192 32t96.375 25.75 69.875 69.875T384 224z"/></svg>