<svg version="1" xmlns="http://www.w3.org/2000/svg" width="682.667" height="682.667" viewBox="0 0 512.000000 512.000000"><path d="M0 256v256h512V0H0v256zM281.2 78c25 5.1 45.2 16.1 63.9 34.9 24.9 24.9 36.9 53.8 36.9 89 0 15.4-1.5 25.5-6.1 39.6-13.8 43.4-52 76.5-97.9 85-18.1 3.3-44.1 1.5-62-4.5-35.8-11.9-66.5-41.9-79.4-77.8-9.4-26.2-9.4-58.1 0-84.4 18.6-52.1 69.3-86.5 123.9-84.2 6.1.3 15.4 1.4 20.7 2.4zm35.5 305.1c3.8 1.4 8.3 5.7 9.9 9.6 3.2 7.4.6 17.9-5.4 22.2-5.7 4-9.3 4.2-68.2 3.9l-56.5-.3-3.7-2.3c-7.2-4.4-10.8-12.8-8.8-20.2 1.3-4.8 6.3-10.8 10.5-12.6 3.9-1.7 117.7-2 122.2-.3z"/><path d="M253.3 115.2c-2.8 3.1-7.1 11.8-9.9 20.2-1.3 3.8-2.4 7.1-2.4 7.3 0 .2 6.7.3 14.9.3h15l-1.6-5.3c-3.1-10.4-10.7-24.7-13.2-24.7-.4 0-1.7 1-2.8 2.2zM202 130.4c-5 3.7-15.3 14.3-18.9 19.5-2.2 3-2.2 3.3-.5 2.7 1-.3 5.7-1.4 10.3-2.5 4.6-1.1 8.5-2.2 8.8-2.4.4-.5 5.2-20.1 5-20.4-.1-.1-2.2 1.3-4.7 3.1zM305 127.4c0 1.1 4.9 19.8 5.3 20.2.3.3 19.6 5.4 20.5 5.4 1.1 0-7.2-10-12.7-15.3-6.4-6.1-13.1-11.4-13.1-10.3zM235.6 181.6c-1.3 1.3-1.6 4.6-1.6 20.2 0 10.3.5 19.4 1 20.2.8 1.3 4.2 1.5 20.9 1.5 11 0 20.3-.4 20.8-.8.4-.5.8-9.8.8-20.8 0-16.7-.2-20.1-1.5-20.9-.8-.5-9.9-1-20.2-1-15.6 0-18.9.3-20.2 1.6zM189 189.4c-8.6 3.1-18.1 7.9-20.4 10.5-1.9 2.1-1.9 2.1 0 4.2 2.3 2.5 16 9.2 23.2 11.3l5.2 1.5v-15c0-8.2-.3-14.9-.7-14.8-.5 0-3.7 1.1-7.3 2.3zM314.5 202v14.9l2.5-.6c8.6-2 23.5-9 26.6-12.4 1.6-1.8 1.6-2 0-3.8-2.5-2.7-12.4-7.8-20.8-10.7-3.9-1.3-7.4-2.4-7.7-2.4-.3 0-.6 6.7-.6 15zM183.1 254.2c3.6 5.1 14.4 16.1 19.4 19.7 2.5 1.8 4.5 3.1 4.5 2.9 0-1-5.1-20.2-5.4-20.6-.5-.4-18.6-5.1-19.9-5.2-.5 0 .2 1.5 1.4 3.2zM319.8 253.4c-4.8 1.2-9 2.5-9.5 2.9-.6.7-5.1 17.8-5.3 20 0 1.1 7.1-4.4 12.8-9.7 5.7-5.4 13.7-15.6 12-15.5-.7.1-5.2 1.1-10 2.3zM255.8 260.8c-8.2.1-14.8.4-14.8.6 0 .1 1.1 3.5 2.4 7.4 2.9 8.4 8 18.3 10.7 20.8 1.8 1.6 2 1.6 3.8 0 2.8-2.5 7.6-12 10.6-21 1.4-4.3 2.5-7.9 2.3-8-.2 0-6.9 0-15 .2z"/></svg>