<svg xmlns="http://www.w3.org/2000/svg" width="384" height="448" viewBox="0 0 384 448" fill="#00A2E8"><path d="M192 32q52.25 0 96.375 25.75t69.875 69.875T384 224t-25.75 96.375-69.875 69.875T192 416t-96.375-25.75-69.875-69.875T0 224t25.75-96.375T95.625 57.75 192 32zm68.5 130.25q-.5.25-2.375 2.375T254.75 167q.5 0 1.125-1.25t1.25-2.75.875-1.75q1.5-1.75 5.5-3.75 3.5-1.5 13-3 8.5-2 12.75 2.75-.5-.5 2.375-3.25t3.625-3q.75-.5 3.75-1.125t3.75-1.875l.5-5.5q-3 .25-4.375-1.75t-1.625-5.25q0 .5-1.5 2 0-1.75-1.125-2t-2.875.25-2.25.25q-2.5-.75-3.75-1.875t-2-4.125-1-3.75q-.5-1.25-2.375-2.625T278 121q-.25-.5-.625-1.375t-.75-1.625-1-1.375-1.375-.625-1.75 1.25-1.875 2.5T269.5 121q-.75-.5-1.5-.375t-1.125.25-1.125.75-1.25.875q-.75.5-2.125.75t-2.125.5Q264 122.5 260 121q-2.5-1-4-.75 2.25-1 1.875-3t-2.125-3.5H257q-.25-1-2.125-2.125T250.5 109.5t-3.25-1.5q-2-1.25-8.5-2.375t-8.25-.125q-1.25 1.5-1.125 2.625t1 3.5.875 3.125q.25 1.5-1.375 3.25t-1.625 3q0 1.75 3.5 3.875t2.5 5.375q-.75 2-4 4t-4 3q-1.25 2-.375 4.625T228.5 146q.5.5.375 1t-.875 1.125-1.375 1T225 150l-.75.5q-2.75 1.25-5.125-1.5t-3.375-6.5q-1.75-6.25-4-7.5-5.75-2-7.25.25-1.25-3.25-10.25-6.5-6.25-2.25-14.5-1 1.5-.25 0-3.75-1.75-3.75-4.75-3 .75-1.5 1-4.375t.25-3.375q.75-3.25 3-5.75.25-.25 1.75-2.125t2.375-3.375.125-1.5q8.75 1 12.5-2.75 1.25-1.25 2.875-4.25t2.625-4.25q2.25-1.5 3.5-1.375t3.625 1.375 3.625 1.25q3.5.25 3.875-2.75t-1.875-5q3 .25.75-4.25-1.25-1.75-2-2.25-3-1-6.75 1.25-2 1 .5 2-.25-.25-2.375 2.625T200.25 86.5t-4-1.25q-.25-.25-1.375-3.375T192.5 78.5q-2 0-4 3.75.75-2-2.75-3.75t-6-2q4.75-3-2-6.75-1.75-1-5.125-1.25t-4.875 1q-1.25 1.75-1.375 2.875t1.25 2 2.625 1.375 2.875 1 2.125.75q3.5 2.5 2 3.5-.5.25-2.125.875T172.25 83t-1.5 1q-.75 1 0 3.5t-.5 3.5Q169 89.75 168 86.625t-1.75-4.125Q168 84.75 160 84l-2.5-.25q-1 0-4 .5t-5.125.25-3.375-2q-1-2 0-5 .25-1 1-.5-1-.75-2.75-2.375t-2.5-2.125q-11.5 3.75-23.5 10.25 1.5.25 3-.25 1.25-.5 3.25-1.625T126 79.5q8.5-3.5 10.5-1.75l1.25-1.25q3.5 4 5 6.25-1.75-1-7.5-.25-5 1.5-5.5 3 1.75 3 1.25 4.5-1-.75-2.875-2.5t-3.625-2.75-3.75-1.25q-4 0-5.5.25-36.5 20-58.75 55.5 1.75 1.75 3 2 1 .25 1.25 2.25t.625 2.75 2.875-.75q2.25 2 .75 4.75.25-.25 11 6.75 4.75 4.25 5.25 5.25.75 2.75-2.5 4.5-.25-.5-2.25-2.25t-2.25-1q-.75 1.25.125 4.625T77 171.25q-1.75 0-2.375 4T74 184.125 73.75 190l.5.25q-.75 3 1.375 8.625T81 203.75q-3.25.75 5 10.75 1.5 2 2 2.25.75.5 3 1.875t3.75 2.5 2.5 2.625q1 1.25 2.5 5.625t3.5 5.875q-.5 1.5 2.375 5t2.625 5.75q-.25 0-.625.25t-.625.25q.75 1.75 3.875 3.5t3.875 3.25q.25.75.5 2.5t.75 2.75 2 .5q.5-5-6-15.5-3.75-6.25-4.25-7.25-.75-1.25-1.375-3.875t-1.125-3.625q.5 0 1.5.375t2.125.875 1.875 1 .5.75q-.75 1.75.5 4.375t3 4.625 4.25 4.75 3 3.25q1.5 1.5 3.5 4.875t0 3.375q2.25 0 5 2.5t4.25 5q1.25 2 2 6.5t1.25 6q.5 1.75 2.125 3.375t3.125 2.375l4 2 3.25 1.75q1.25.5 4.625 2.625T160.5 292q2.5 1 4 1t3.625-.625 3.375-.875q3.75-.5 7.25 3.75t5.25 5.25q9 4.75 13.75 2.75-.5.25.125 1.875t2 3.875 2.25 3.625 1.375 2.125q1.25 1.5 4.5 3.75t4.5 3.75q1.5-1 1.75-2.25-.75 2 1.75 5t4.5 2.5q3.5-.75 3.5-8-7.75 3.75-12.25-4.5 0-.25-.625-1.375t-1-2.125-.625-2.125 0-1.875 1.25-.75q2.25 0 2.5-.875t-.5-3.125-1-3.25q-.25-2-2.75-5t-3-3.75q-1.25 2.25-4 2t-4-2.25q0 .25-.375 1.375t-.375 1.625q-3.25 0-3.75-.25.25-.75.625-4.375t.875-5.625q.25-1 1.375-3t1.875-3.625 1-3.125-1.125-2.375-4.375-.625q-4.75.25-6.5 5-.25.75-.75 2.625T185.25 281t-2.25 1.75q-1.75.75-6 .5t-6-1.25q-3.25-2-5.625-7.25T163 265.5q0-2.5.625-6.625t.75-6.25T163 246.5q.75-.5 2.25-2.375t2.5-2.625q.5-.25 1.125-.375t1.125 0 1-.375.75-1.5q-.25-.25-1-.75-.75-.75-1-.75 1.75.75 7.125-.375t6.875.375q3.75 2.75 5.5-.5 0-.25-.625-2.375t-.125-3.375q1.25 6.75 7.25 2.25.75.75 3.875 1.25t4.375 1.25q.75.5 1.75 1.375t1.375 1.125 1.25-.125T210.5 237q2.5 3.5 3 6 2.75 10 4.75 11 1.75.75 2.75.5t1.125-2.375 0-3.5-.375-3.125l-.25-2V239l-.25-2q-3.75-.75-4.625-3t.375-4.625 3.75-4.625q.25-.25 2-.875t3.875-1.625 3.125-2q5.25-4.75 3.75-8.75 1.75 0 2.75-2.25-.25 0-1.25-.75t-1.875-1.25-1.125-.5q2.25-1.25.5-4 1.25-.75 1.875-2.75t1.875-2.5q2.25 3 5.25.5 1.75-2 .25-4 1.25-1.75 5.125-2.625T251.5 189q1.75.5 2-.5t.25-3 .75-3q1-1.25 3.75-2.25t3.25-1.25l4.25-2.75q.75-1 0-1 4.5.5 7.75-2.75 2.5-2.75-1.5-5 .75-1.5-.75-2.375t-3.75-1.375q.75-.25 2.875-.125t2.625-.375q3.75-2.5-1.75-4-4.25-1.25-10.75 3zM219.75 381.5q51.5-9 87.75-47.25-.75-.75-3.125-1.125t-3.125-.875q-4.5-1.75-6-2 .25-1.75-.625-3.25t-2-2.25-3.125-2-2.75-1.75q-.5-.5-1.75-1.5t-1.75-1.375-1.875-1.125-2.125-.5-2.5.25l-.75.25q-.75.25-1.375.625t-1.375.75-1 .75 0 .625q-5.25-4.25-9-5.5-1.25-.25-2.75-1.375t-2.625-1.75-2.5-.375-2.875 1.75q-1.25 1.25-1.5 3.75t-.5 3.25q-1.75-1.25 0-4.375t.5-4.625q-.75-1.5-2.625-1.125t-3 1.125-2.875 2.125-2.25 1.625-2.125 1.375T236 317.5q-.75 1-1.5 3t-1.25 2.75q-.5-1-2.875-1.625T228 320.25q.5 2.5 1 8.75t1.25 9.5q1.75 7.75-3 12-6.75 6.25-7.25 10-1 5.5 3 6.5 0 1.75-2 5.125t-1.75 5.375q0 1.5.5 4z"/></svg>