<svg xmlns="http://www.w3.org/2000/svg" width="384" height="448" viewBox="0 0 384 448" fill="#096"><path d="M64 336q0-6.5-4.75-11.25T48 320t-11.25 4.75T32 336t4.75 11.25T48 352t11.25-4.75T64 336zm288-144q0-12.75-9.75-22.375T320 160h-88q0-14.5 12-39.875T256 80q0-24.5-8-36.25T216 32q-6.5 6.5-9.5 21.25t-7.625 31.375T184 112q-5.5 5.75-19.25 22.75-1 1.25-5.75 7.5t-7.875 10.25-8.625 10.625-10 11-9.625 8.875-10 6.75T104 192h-8v160h8q3.25 0 7.875.75t8.25 1.625 9.5 2.75 8.75 2.875 8.875 3.125 7.25 2.625Q207.25 384 240 384h30.25q48 0 48-41.75 0-6.5-1.25-14 7.5-4 11.875-13.125t4.375-18.375-4.5-17.25Q342 267 342 249.75q0-6.25-2.5-13.875T333.25 224q8-.25 13.375-11.75T352 192zm32-.25q0 22.25-12.25 40.75 2.25 8.25 2.25 17.25 0 19.25-9.5 36 .75 5.25.75 10.75 0 25.25-15 44.5.25 34.75-21.25 54.875T272.25 416H240q-24 0-47.375-5.625T138.5 394q-29-10-34.5-10H32q-13.25 0-22.625-9.375T0 352V192q0-13.25 9.375-22.625T32 160h68.5q9-6 34.25-38.75 14.5-18.75 26.75-32 6-6.25 8.875-21.375T178 36.25t15.5-27Q203.25 0 216 0q21 0 37.75 8.125t25.5 25.375T288 80q0 23.25-12 48h44q26 0 45 19t19 44.75z"/></svg>